<svg xmlns="http://www.w3.org/2000/svg" width="76.99" height="16.187" viewBox="0 0 76.99 16.187"><defs><style>.a{fill:#ed0c0c;}</style></defs><path class="a" d="M-88.207,184.993c1.389,0,2.49-1.117,3.336-3.234l3.386-8.414a.859.859,0,0,0,.068-.339c0-.288-.22-.457-.61-.457h-1.3a.747.747,0,0,0-.779.559l-1.812,5.384-2.117-5.384a.778.778,0,0,0-.8-.559h-1.321c-.559,0-.711.389-.524.812l3.556,7.839-.254.559c-.356.761-.694,1.084-1.1,1.084a1.345,1.345,0,0,1-.729-.271.613.613,0,0,0-.9.152l-.406.525c-.288.355-.253.643.119.981a2.815,2.815,0,0,0,2.184.762m-6.824-12.648a5.649,5.649,0,0,0-3.555.982c-.423.3-.339.593-.1.948l.322.474c.237.355.576.322.966.119a4.087,4.087,0,0,1,2.032-.491,1.791,1.791,0,0,1,2,1.981v.119a6.8,6.8,0,0,0-2.421-.39c-2.54,0-3.589,1.371-3.589,2.759,0,1.371.914,2.693,3.2,2.693a3.578,3.578,0,0,0,3.031-1.44c.034.253.068.491.119.745.067.355.338.49.728.49h.627a.623.623,0,0,0,.677-.677v-4.165c0-2.879-1.779-4.149-4.031-4.149m-.728,7.348c-.745,0-1.27-.3-1.27-.965,0-.694.491-1.05,1.66-1.05a8.178,8.178,0,0,1,1.9.237,2.03,2.03,0,0,1-2.286,1.778m-6.44,1.784,1.147-.445a.907.907,0,0,0,.637-.939V170.32a.907.907,0,0,0-.637-.939l-1.147-.445c-.462-.181-.765.05-.765.561v11.422c0,.511.3.742.765.561m-5.768-9.133a3.876,3.876,0,0,0-3,1.4,3.1,3.1,0,0,0-.118-.676.673.673,0,0,0-.728-.525h-.847a.62.62,0,0,0-.676.695v11.005a.615.615,0,0,0,.676.677h1.186a.615.615,0,0,0,.677-.677v-3.877a3.633,3.633,0,0,0,2.76,1.169c2.473,0,4.1-1.9,4.1-4.589,0-2.659-1.524-4.606-4.029-4.606m-.593,7.027a2.118,2.118,0,0,1-2.235-2.32v-.322a2.119,2.119,0,0,1,2.268-2.218c1.118,0,2.048.728,2.048,2.472s-1,2.387-2.082,2.387m-10.4-7.027a4.546,4.546,0,0,0-4.707,4.589,4.444,4.444,0,0,0,4.707,4.605,4.537,4.537,0,0,0,4.657-4.605,4.436,4.436,0,0,0-4.657-4.589m-.016,7.027a2.176,2.176,0,0,1-2.151-2.438,2.182,2.182,0,0,1,2.168-2.421,2.147,2.147,0,0,1,2.116,2.421,2.163,2.163,0,0,1-2.133,2.438m-9.5-7.027a3.8,3.8,0,0,0-2.845,1.236v-4.013a.621.621,0,0,0-.694-.677h-1.169a.623.623,0,0,0-.677.677v11.091a.631.631,0,0,0,.677.677h.779a.7.7,0,0,0,.779-.575c.05-.2.068-.39.1-.593a3.644,3.644,0,0,0,2.946,1.372c2.489,0,4.1-1.9,4.1-4.571,0-2.659-1.523-4.623-4-4.623m-.627,7.027a2.1,2.1,0,0,1-2.218-2.32v-.322a2.11,2.11,0,0,1,2.269-2.218c1.1,0,2.032.745,2.032,2.472,0,1.761-.982,2.387-2.083,2.387m-10.4-7.027a4.546,4.546,0,0,0-4.707,4.589,4.444,4.444,0,0,0,4.707,4.605,4.536,4.536,0,0,0,4.656-4.605,4.425,4.425,0,0,0-4.656-4.589m-.017,7.027a2.176,2.176,0,0,1-2.15-2.438,2.182,2.182,0,0,1,2.167-2.421,2.147,2.147,0,0,1,2.117,2.421,2.164,2.164,0,0,1-2.134,2.438m-7.517,1.964h1.169a.615.615,0,0,0,.677-.677v-11.09a.608.608,0,0,0-.677-.677h-1.169a.621.621,0,0,0-.694.677v11.09a.628.628,0,0,0,.694.677m-2.743-8.787h-.779a.7.7,0,0,0-.779.542,3.7,3.7,0,0,0-.068.542,3.734,3.734,0,0,0-2.9-1.287,4.116,4.116,0,0,0-4.115,4.419,3.949,3.949,0,0,0,4.013,4.3,3.616,3.616,0,0,0,2.81-1.186v.644c0,1.558-.931,2.353-2.692,2.353a4.75,4.75,0,0,1-2.506-.745.981.981,0,0,0-.44-.153.581.581,0,0,0-.508.322l-.406.627a.768.768,0,0,0-.152.441.638.638,0,0,0,.3.491,6.451,6.451,0,0,0,4.064,1.2,4.527,4.527,0,0,0,4.825-4.621v-7.214a.607.607,0,0,0-.676-.678m-1.813,4.318a2.094,2.094,0,0,1-2.285,2.167c-1.1,0-2-.746-2-2.3a1.991,1.991,0,0,1,2.066-2.252,2.068,2.068,0,0,1,2.217,2.252Z" transform="translate(158.407 -168.874)"/></svg>